<mxfile host="65bd71144e">
    <diagram name="Page-1" id="7uwTQVP_gEH6BWmbGfMs">
        <mxGraphModel dx="304" dy="421" grid="1" gridSize="10" guides="1" tooltips="1" connect="1" arrows="1" fold="1" page="1" pageScale="1" pageWidth="850" pageHeight="1100" math="0" shadow="0">
            <root>
                <mxCell id="0"/>
                <mxCell id="1" parent="0"/>
                <mxCell id="vupdXtvd9uv_NZMfUTUb-17" style="edgeStyle=orthogonalEdgeStyle;rounded=0;orthogonalLoop=1;jettySize=auto;html=1;entryX=0.491;entryY=1.028;entryDx=0;entryDy=0;entryPerimeter=0;" parent="1" source="vupdXtvd9uv_NZMfUTUb-9" target="vupdXtvd9uv_NZMfUTUb-16" edge="1">
                    <mxGeometry relative="1" as="geometry"/>
                </mxCell>
                <mxCell id="vupdXtvd9uv_NZMfUTUb-9" value="AnakLakiLaki" style="swimlane;fontStyle=1;align=center;verticalAlign=top;childLayout=stackLayout;horizontal=1;startSize=26;horizontalStack=0;resizeParent=1;resizeParentMax=0;resizeLast=0;collapsible=1;marginBottom=0;fillColor=#FAFAFA;" parent="1" vertex="1">
                    <mxGeometry x="270" y="180" width="190" height="52" as="geometry"/>
                </mxCell>
                <mxCell id="vupdXtvd9uv_NZMfUTUb-12" value="+ bermain(): void" style="text;strokeColor=none;fillColor=none;align=left;verticalAlign=top;spacingLeft=4;spacingRight=4;overflow=hidden;rotatable=0;points=[[0,0.5],[1,0.5]];portConstraint=eastwest;" parent="vupdXtvd9uv_NZMfUTUb-9" vertex="1">
                    <mxGeometry y="26" width="190" height="26" as="geometry"/>
                </mxCell>
                <mxCell id="vupdXtvd9uv_NZMfUTUb-13" value="Manusia" style="swimlane;fontStyle=1;align=center;verticalAlign=top;childLayout=stackLayout;horizontal=1;startSize=26;horizontalStack=0;resizeParent=1;resizeParentMax=0;resizeLast=0;collapsible=1;marginBottom=0;fillColor=#FAFAFA;" parent="1" vertex="1">
                    <mxGeometry x="260" y="30" width="210" height="52" as="geometry"/>
                </mxCell>
                <mxCell id="vupdXtvd9uv_NZMfUTUb-16" value="+ makan(): void" style="text;strokeColor=none;fillColor=none;align=left;verticalAlign=top;spacingLeft=4;spacingRight=4;overflow=hidden;rotatable=0;points=[[0,0.5],[1,0.5]];portConstraint=eastwest;" parent="vupdXtvd9uv_NZMfUTUb-13" vertex="1">
                    <mxGeometry y="26" width="210" height="26" as="geometry"/>
                </mxCell>
                <mxCell id="vupdXtvd9uv_NZMfUTUb-18" value="extends" style="text;html=1;strokeColor=none;fillColor=none;align=center;verticalAlign=middle;whiteSpace=wrap;rounded=0;" parent="1" vertex="1">
                    <mxGeometry x="365" y="120" width="60" height="30" as="geometry"/>
                </mxCell>
            </root>
        </mxGraphModel>
    </diagram>
</mxfile>